<svg id="Calque_1" data-name="Calque 1" xmlns="http://www.w3.org/2000/svg" viewBox="0 0 786.93 253.43"><defs><style>.cls-1{fill:#7b7b7b;}.cls-2{fill:#ff358b;fill-rule:evenodd;}</style></defs><title>deepr-logo</title><path class="cls-1" d="M363.39,83c0-7.08.2-8.9,2-12.33,2.22-4.45,7.48-7.48,12.94-7.48,5.26,0,10.51,3,12.74,7.48,1.82,3.43,2,5,2,12.33V196c0,10.71-5.46,17-15,17-7.28,0-11.33-3.23-14.36-11.73-6.27,8.7-14.15,12.34-25.68,12.34-13.54,0-25.47-6.67-34-18.6A63.76,63.76,0,0,1,293,159.61c0-15.77,7.28-32.15,18.2-41.65C318.9,111.29,330,107,339.33,107c8.89,0,16,2.63,24.06,9.3ZM322.75,158.6c0,15,8.69,25.88,20.62,25.88,11.53,0,20.22-11.12,20.22-25.68,0-14.35-8.69-25.47-20.22-25.47C331.64,133.33,322.75,144.25,322.75,158.6Z"/><path class="cls-1" d="M431.12,170.13c4.45,11.93,11.93,17.59,23.66,17.59,7.07,0,8.89-.61,24.46-8.29a16.83,16.83,0,0,1,6.47-1.42c6.07,0,11.93,5.87,11.93,12.13,0,12.14-21.63,23.46-44.48,23.46-31.75,0-54-21.43-54-51.76,0-31.55,21.64-54.8,51-54.8,27.7,0,49.33,22.45,49.33,51.36,0,8.29-3.84,11.73-12.94,11.73Zm39-20.22c-1.41-5.66-2.42-8.09-4.24-10.92a18.51,18.51,0,0,0-15.17-7.68c-9.91,0-16.38,5.66-20.62,18.6Z"/><path class="cls-1" d="M538.08,170.13c4.45,11.93,11.93,17.59,23.65,17.59,7.08,0,8.9-.61,24.47-8.29a16.83,16.83,0,0,1,6.47-1.42c6.07,0,11.93,5.87,11.93,12.13,0,12.14-21.63,23.46-44.48,23.46-31.75,0-54-21.43-54-51.76,0-31.55,21.64-54.8,51-54.8,27.71,0,49.34,22.45,49.34,51.36,0,8.29-3.84,11.73-12.94,11.73Zm39-20.22c-1.41-5.66-2.42-8.09-4.24-10.92a18.51,18.51,0,0,0-15.17-7.68c-9.91,0-16.38,5.66-20.62,18.6Z"/><path class="cls-1" d="M614.63,125.24c0-10.92,5.46-17.59,14.35-17.59,6.88,0,10.52,2.83,14.36,11.32,7.88-8.69,15.16-11.93,26.49-11.93,24.66,0,43.87,22.85,43.87,52.37,0,30.94-19.61,54.19-45.69,54.19-9.3,0-15-2-23.66-8.7v28.72c0,7.28-.2,9.09-2,12.33-2.23,4.45-7.48,7.48-12.74,7.48-5.46,0-10.72-3-12.94-7.48-1.82-3.44-2-5-2-12.33ZM643.54,160c0,15.36,8.09,25.88,20,25.88,11.52,0,20.42-11.12,20.42-25.68,0-14.36-8.9-25.48-20.42-25.48C651.83,134.74,643.54,145.26,643.54,160Z"/><path class="cls-1" d="M721.63,124.63c0-10.31,5.86-17,15-17,6.67,0,11.52,3.44,14.76,10.51,8.29-8.29,13.55-11.12,20.42-11.12a15.19,15.19,0,0,1,15.16,15.37c0,7.08-3,9.91-15.16,13.55-16.18,5.25-20.42,9.3-20.42,19.81v37.41c0,7.07-.2,8.89-2,12.33C747.1,210,741.85,213,736.59,213c-5.46,0-10.72-3-12.94-7.48-1.82-3.44-2-5-2-12.33Z"/><path class="cls-2" d="M106.26,106.21h98.56a53.11,53.11,0,1,1,0,106.22H106.26a53.15,53.15,0,0,1-42.51-21.22L50.57,202.92a7.56,7.56,0,0,1-5,1.92H7.6A7.59,7.59,0,0,1,1.38,192.9l23.51-33.58L1.38,125.74A7.59,7.59,0,0,1,7.6,113.8H45.53a7.56,7.56,0,0,1,5,1.92l13.18,11.71A53.15,53.15,0,0,1,106.26,106.21Zm98.59,64.49a11.38,11.38,0,1,0-11.38-11.38A11.38,11.38,0,0,0,204.85,170.7Zm-49.31,0a11.38,11.38,0,1,0-11.38-11.38A11.39,11.39,0,0,0,155.54,170.7Zm-49.31,0a11.38,11.38,0,1,0-11.38-11.38A11.39,11.39,0,0,0,106.23,170.7ZM121.4,94.83l3.33-16.29A12.09,12.09,0,0,1,136.6,68.28h45.47a12.08,12.08,0,0,1,11.86,10.26l3.34,16.29Zm45.52-37.92H151.75V22.75A22.74,22.74,0,0,1,174.49,0h11.45a3.79,3.79,0,0,1,3.75,3.83v7.51a3.77,3.77,0,0,1-3.75,3.83H174.49a7.57,7.57,0,0,0-7.57,7.58Z"/></svg>