<svg xmlns="http://www.w3.org/2000/svg" viewBox="0 0 786.93 253.43"><defs><style>.a{fill:#eceff1;}.b{fill:#ff358b;fill-rule:evenodd;}</style></defs><path class="a" d="M483.38,467.85c0-7.08.2-8.9,2-12.34,2.22-4.45,7.48-7.48,12.94-7.48,5.26,0,10.52,3,12.74,7.48,1.82,3.44,2,5.06,2,12.34v113c0,10.72-5.46,17-15,17-7.28,0-11.32-3.24-14.36-11.73-6.26,8.69-14.15,12.33-25.68,12.33-13.54,0-25.47-6.67-34-18.6A63.67,63.67,0,0,1,413,544.48c0-15.77,7.27-32.15,18.19-41.65,7.69-6.68,18.81-10.92,28.11-10.92,8.89,0,16,2.63,24.06,9.3Zm-40.64,75.62c0,15,8.69,25.88,20.62,25.88,11.53,0,20.22-11.12,20.22-25.68,0-14.36-8.69-25.48-20.22-25.48C451.63,518.19,442.74,529.11,442.74,543.47Z" transform="translate(-119.99 -384.86)"/><path class="a" d="M551.11,555c4.45,11.93,11.93,17.59,23.66,17.59,7.07,0,8.89-.6,24.46-8.29a16.83,16.83,0,0,1,6.47-1.41c6.07,0,11.93,5.86,11.93,12.13,0,12.13-21.63,23.45-44.48,23.45-31.74,0-54-21.43-54-51.76,0-31.54,21.64-54.79,51-54.79,27.7,0,49.33,22.44,49.33,51.35,0,8.29-3.84,11.73-12.94,11.73Zm39-20.22c-1.41-5.66-2.42-8.09-4.24-10.92a18.51,18.51,0,0,0-15.17-7.68c-9.9,0-16.37,5.66-20.62,18.6Z" transform="translate(-119.99 -384.86)"/><path class="a" d="M658.07,555c4.45,11.93,11.93,17.59,23.66,17.59,7.07,0,8.89-.6,24.46-8.29a16.83,16.83,0,0,1,6.47-1.41c6.07,0,11.93,5.86,11.93,12.13,0,12.13-21.63,23.45-44.48,23.45-31.74,0-54-21.43-54-51.76,0-31.54,21.64-54.79,51-54.79,27.7,0,49.33,22.44,49.33,51.35,0,8.29-3.84,11.73-12.94,11.73Zm39-20.22c-1.41-5.66-2.42-8.09-4.24-10.92a18.51,18.51,0,0,0-15.17-7.68c-9.9,0-16.37,5.66-20.62,18.6Z" transform="translate(-119.99 -384.86)"/><path class="a" d="M734.62,510.1c0-10.91,5.46-17.59,14.36-17.59,6.87,0,10.51,2.83,14.35,11.33,7.89-8.7,15.17-11.93,26.49-11.93,24.67,0,43.87,22.84,43.87,52.37,0,30.93-19.61,54.18-45.69,54.18-9.3,0-15-2-23.66-8.69v28.71c0,7.28-.2,9.1-2,12.33-2.22,4.45-7.48,7.49-12.74,7.49-5.46,0-10.71-3-12.94-7.49-1.82-3.43-2-5-2-12.33Zm28.91,34.78c0,15.37,8.09,25.88,20,25.88,11.53,0,20.42-11.12,20.42-25.68,0-14.35-8.89-25.47-20.42-25.47C771.82,519.61,763.53,530.12,763.53,544.88Z" transform="translate(-119.99 -384.86)"/><path class="a" d="M841.62,509.5c0-10.31,5.86-17,15-17,6.67,0,11.52,3.44,14.76,10.52,8.29-8.29,13.55-11.12,20.42-11.12a15.19,15.19,0,0,1,15.17,15.36c0,7.08-3,9.91-15.17,13.55-16.17,5.26-20.42,9.3-20.42,19.82V578c0,7.08-.2,8.9-2,12.34-2.23,4.44-7.48,7.48-12.74,7.48-5.46,0-10.72-3-12.94-7.48-1.82-3.44-2-5.06-2-12.34Z" transform="translate(-119.99 -384.86)"/><path class="b" d="M226.25,491.08h98.56a53.11,53.11,0,1,1,0,106.21H226.25a53.08,53.08,0,0,1-42.5-21.22l-13.19,11.72a7.58,7.58,0,0,1-5,1.91H127.59a7.58,7.58,0,0,1-6.21-11.93l23.5-33.59-23.5-33.58a7.59,7.59,0,0,1,6.21-11.94h37.93a7.59,7.59,0,0,1,5,1.92l13.19,11.72A53.08,53.08,0,0,1,226.25,491.08Zm98.59,64.48a11.38,11.38,0,1,0-11.38-11.38A11.37,11.37,0,0,0,324.84,555.56Zm-49.31,0a11.38,11.38,0,1,0-11.38-11.38A11.37,11.37,0,0,0,275.53,555.56Zm-49.31,0a11.38,11.38,0,1,0-11.38-11.38A11.38,11.38,0,0,0,226.22,555.56Zm15.17-75.86,3.33-16.29a12.11,12.11,0,0,1,11.87-10.27h45.47a12.08,12.08,0,0,1,11.86,10.27l3.34,16.29Zm45.52-37.92H271.74V407.61a22.75,22.75,0,0,1,22.74-22.75h11.45a3.79,3.79,0,0,1,3.75,3.83v7.52a3.77,3.77,0,0,1-3.75,3.83H294.48a7.57,7.57,0,0,0-7.57,7.57Z" transform="translate(-119.99 -384.86)"/></svg>