<svg id="Calque_1" data-name="Calque 1" xmlns="http://www.w3.org/2000/svg" viewBox="0 0 787.1 319.42"><defs><style>.cls-1{fill:#7b7b7b;}.cls-2{fill:#ff358b;fill-rule:evenodd;}</style></defs><title>deepr-logo-with-tagline</title><path class="cls-1" d="M363.56,83c0-7.08.2-8.9,2-12.33,2.22-4.45,7.48-7.48,12.94-7.48,5.26,0,10.51,3,12.74,7.48,1.82,3.43,2,5,2,12.33V196c0,10.71-5.46,17-15,17C371,213,367,209.76,364,201.26c-6.27,8.7-14.15,12.34-25.68,12.34-13.54,0-25.47-6.67-34-18.6a63.76,63.76,0,0,1-11.12-35.39c0-15.77,7.28-32.15,18.2-41.65C319.07,111.29,330.2,107,339.5,107c8.89,0,16,2.63,24.06,9.3ZM322.92,158.6c0,15,8.69,25.88,20.62,25.88,11.52,0,20.22-11.12,20.22-25.68,0-14.35-8.7-25.47-20.22-25.47C331.81,133.33,322.92,144.25,322.92,158.6Z"/><path class="cls-1" d="M431.29,170.13c4.45,11.93,11.93,17.59,23.66,17.59,7.07,0,8.89-.61,24.46-8.29a16.83,16.83,0,0,1,6.47-1.42c6.07,0,11.93,5.87,11.93,12.13,0,12.14-21.63,23.46-44.48,23.46-31.75,0-54-21.43-54-51.76,0-31.55,21.64-54.8,51-54.8,27.7,0,49.33,22.45,49.33,51.36,0,8.29-3.84,11.73-12.94,11.73Zm39-20.22c-1.41-5.66-2.42-8.09-4.24-10.92a18.51,18.51,0,0,0-15.17-7.68c-9.91,0-16.38,5.66-20.62,18.6Z"/><path class="cls-1" d="M538.25,170.13c4.45,11.93,11.93,17.59,23.65,17.59,7.08,0,8.9-.61,24.47-8.29a16.83,16.83,0,0,1,6.47-1.42c6.07,0,11.93,5.87,11.93,12.13,0,12.14-21.63,23.46-44.48,23.46-31.75,0-54-21.43-54-51.76,0-31.55,21.64-54.8,50.95-54.8,27.71,0,49.34,22.45,49.34,51.36,0,8.29-3.84,11.73-12.94,11.73Zm39-20.22c-1.41-5.66-2.42-8.09-4.24-10.92a18.51,18.51,0,0,0-15.17-7.68c-9.91,0-16.38,5.66-20.62,18.6Z"/><path class="cls-1" d="M614.8,125.24c0-10.92,5.46-17.59,14.35-17.59,6.88,0,10.52,2.83,14.36,11.32C651.39,110.28,658.67,107,670,107c24.66,0,43.87,22.85,43.87,52.37,0,30.94-19.61,54.19-45.69,54.19-9.3,0-15-2-23.66-8.7v28.72c0,7.28-.2,9.09-2,12.33-2.23,4.45-7.48,7.48-12.74,7.48-5.46,0-10.72-3-12.94-7.48-1.82-3.44-2-5-2-12.33ZM643.71,160c0,15.36,8.09,25.88,20,25.88,11.52,0,20.42-11.12,20.42-25.68,0-14.36-8.9-25.48-20.42-25.48C652,134.74,643.71,145.26,643.71,160Z"/><path class="cls-1" d="M721.8,124.63c0-10.31,5.86-17,15-17,6.67,0,11.52,3.44,14.76,10.51,8.29-8.29,13.55-11.12,20.42-11.12a15.19,15.19,0,0,1,15.16,15.37c0,7.08-3,9.91-15.16,13.55-16.18,5.25-20.42,9.3-20.42,19.81v37.41c0,7.07-.2,8.89-2,12.33C747.27,210,742,213,736.76,213c-5.46,0-10.72-3-12.94-7.48-1.82-3.44-2-5-2-12.33Z"/><path class="cls-1" d="M9.41,286.73h3.82l9.07,25H18.59L16,304.23H6.18l-2.71,7.48H0ZM15,301.48l-3.85-11-4,11Z"/><path class="cls-1" d="M36.44,306a4.39,4.39,0,0,0,.78,2.35c.79,1,2.15,1.48,4.1,1.48a6.18,6.18,0,0,0,3-.74,2.46,2.46,0,0,0,1.32-2.29,2,2,0,0,0-1-1.79,12.27,12.27,0,0,0-2.67-.86l-2.47-.62A11.9,11.9,0,0,1,36,302.24a3.84,3.84,0,0,1-2-3.43,5.25,5.25,0,0,1,1.88-4.19A7.63,7.63,0,0,1,41,293q4.17,0,6,2.42a5.22,5.22,0,0,1,1.13,3.3h-2.9a3.39,3.39,0,0,0-.74-1.88q-1.08-1.2-3.75-1.2a4.58,4.58,0,0,0-2.69.66,2,2,0,0,0-.91,1.75,2.13,2.13,0,0,0,1.2,1.89,6.86,6.86,0,0,0,2,.75l2.07.49a16.25,16.25,0,0,1,4.5,1.55,4.1,4.1,0,0,1,1.79,3.69,5.62,5.62,0,0,1-1.87,4.2c-1.25,1.18-3.14,1.77-5.69,1.77-2.74,0-4.69-.61-5.83-1.84A7,7,0,0,1,33.5,306Z"/><path class="cls-1" d="M51.67,293.58h3V296a7.39,7.39,0,0,1,2-1.92,6.5,6.5,0,0,1,3.65-1,6.87,6.87,0,0,1,5.27,2.37c1.44,1.58,2.17,3.84,2.17,6.78,0,4-1.05,6.8-3.13,8.5A7.07,7.07,0,0,1,60,312.33a6.17,6.17,0,0,1-3.46-.91,7.81,7.81,0,0,1-1.83-1.75V319H51.67Zm11.52,14.28a8.55,8.55,0,0,0,1.42-5.36,10.08,10.08,0,0,0-.63-3.75,4.63,4.63,0,0,0-8.74.17,12.64,12.64,0,0,0-.63,4.32,9.12,9.12,0,0,0,.63,3.59,4.65,4.65,0,0,0,7.95,1Z"/><path class="cls-1" d="M82.32,294a6.87,6.87,0,0,1,2.76,2.36,8.26,8.26,0,0,1,1.22,3.21,21.2,21.2,0,0,1,.27,4H73.32a7.88,7.88,0,0,0,1.3,4.46,4.32,4.32,0,0,0,3.76,1.68,4.87,4.87,0,0,0,3.8-1.58A5.43,5.43,0,0,0,83.3,306h3a6.37,6.37,0,0,1-.79,2.24,8.1,8.1,0,0,1-1.5,2,7,7,0,0,1-3.42,1.84,10.47,10.47,0,0,1-2.48.27,7.58,7.58,0,0,1-5.73-2.47A9.65,9.65,0,0,1,70,303a10.54,10.54,0,0,1,2.36-7.13,7.78,7.78,0,0,1,6.19-2.74A8.15,8.15,0,0,1,82.32,294Zm1.1,7.15a8,8,0,0,0-.86-3.18,4.4,4.4,0,0,0-4.16-2.21,4.6,4.6,0,0,0-3.51,1.52,5.74,5.74,0,0,0-1.5,3.87Z"/><path class="cls-1" d="M102.19,294.47c1.29,1,2.06,2.71,2.32,5.15h-3a5.5,5.5,0,0,0-1.24-2.8,3.91,3.91,0,0,0-3.11-1.11A4.3,4.3,0,0,0,93,298.56a11.25,11.25,0,0,0-.82,4.57,8.62,8.62,0,0,0,1.16,4.61,4.47,4.47,0,0,0,6.65.7,6.26,6.26,0,0,0,1.54-3.17h3a7.19,7.19,0,0,1-7.77,7,7,7,0,0,1-5.7-2.61,10,10,0,0,1-2.13-6.52q0-4.8,2.33-7.47A7.55,7.55,0,0,1,97.18,293,7.94,7.94,0,0,1,102.19,294.47Z"/><path class="cls-1" d="M107.5,286.73h3.11v3.47H107.5Zm0,6.85h3.11v18.13H107.5Z"/><path class="cls-1" d="M116.24,287.94c.72-1.05,2.1-1.57,4.14-1.57l.59,0,.7.05v2.79l-.7,0h-.4c-.94,0-1.5.24-1.69.72a14.38,14.38,0,0,0-.27,3.68h3.06V296h-3.06v15.71h-3V296h-2.53v-2.42h2.53v-2.85A5.59,5.59,0,0,1,116.24,287.94Z"/><path class="cls-1" d="M124.1,286.73h3.11v3.47H124.1Zm0,6.85h3.11v18.13H124.1Z"/><path class="cls-1" d="M143.63,294.47c1.29,1,2.06,2.71,2.32,5.15h-3a5.59,5.59,0,0,0-1.25-2.8,3.91,3.91,0,0,0-3.11-1.11,4.3,4.3,0,0,0-4.18,2.85,11.25,11.25,0,0,0-.82,4.57,8.62,8.62,0,0,0,1.16,4.61,4.48,4.48,0,0,0,6.66.7,6.43,6.43,0,0,0,1.54-3.17h3a7.19,7.19,0,0,1-7.77,7,7,7,0,0,1-5.7-2.61,10,10,0,0,1-2.12-6.52c0-3.2.77-5.69,2.33-7.47a7.52,7.52,0,0,1,5.93-2.67A7.94,7.94,0,0,1,143.63,294.47Z"/><path class="cls-1" d="M158.65,300.69a1.66,1.66,0,0,0,1.41-.88,2.68,2.68,0,0,0,.21-1.18,2.5,2.5,0,0,0-1.12-2.28,6,6,0,0,0-3.18-.71,4,4,0,0,0-3.39,1.3,4.2,4.2,0,0,0-.73,2.14H149c.06-2.25.78-3.82,2.18-4.7a9,9,0,0,1,4.87-1.32,9.92,9.92,0,0,1,5.21,1.22,4.16,4.16,0,0,1,2,3.81v10.5a1.34,1.34,0,0,0,.2.76.94.94,0,0,0,.82.29l.46,0c.17,0,.35,0,.55-.07v2.26a7.27,7.27,0,0,1-1.09.25,6.78,6.78,0,0,1-1,.06,2.52,2.52,0,0,1-2.3-1.13,4.37,4.37,0,0,1-.53-1.68,7.73,7.73,0,0,1-2.68,2.12,8.23,8.23,0,0,1-3.86.91,5.8,5.8,0,0,1-4.15-1.54,5.12,5.12,0,0,1-1.6-3.85,4.92,4.92,0,0,1,1.58-3.92,7.55,7.55,0,0,1,4.15-1.72ZM152.2,309a3.62,3.62,0,0,0,2.3.76,7,7,0,0,0,3.13-.74,4.21,4.21,0,0,0,2.55-4.06v-2.46a5.12,5.12,0,0,1-1.44.59,11.23,11.23,0,0,1-1.73.34l-1.85.24a7.19,7.19,0,0,0-2.51.7,2.71,2.71,0,0,0-1.42,2.54A2.53,2.53,0,0,0,152.2,309Z"/><path class="cls-1" d="M168.15,288.41h3.09v5.09h2.91V296h-2.91v11.89a1.28,1.28,0,0,0,.65,1.27,2.65,2.65,0,0,0,1.19.19h.47l.6-.06v2.43a6.5,6.5,0,0,1-1.1.23,11.78,11.78,0,0,1-1.23.06,3.33,3.33,0,0,1-2.91-1.09,4.89,4.89,0,0,1-.76-2.85V296h-2.47v-2.5h2.47Z"/><path class="cls-1" d="M176.89,286.73H180v3.47h-3.12Zm0,6.85H180v18.13h-3.12Z"/><path class="cls-1" d="M197.59,295.32q2.41,2.34,2.41,6.9a12,12,0,0,1-2.12,7.27q-2.13,2.86-6.61,2.87a7.43,7.43,0,0,1-5.92-2.54,10,10,0,0,1-2.2-6.82,10.91,10.91,0,0,1,2.31-7.31,7.77,7.77,0,0,1,6.22-2.72A8.14,8.14,0,0,1,197.59,295.32Zm-1.9,12.1a11.62,11.62,0,0,0,1.12-5.12,9.13,9.13,0,0,0-.81-4.14,4.53,4.53,0,0,0-4.41-2.52,4.34,4.34,0,0,0-4,2.14A10,10,0,0,0,186.3,303a8.71,8.71,0,0,0,1.26,4.84,4.42,4.42,0,0,0,4,1.93A4.16,4.16,0,0,0,195.69,307.42Z"/><path class="cls-1" d="M203.34,293.5h2.91v2.58a8.07,8.07,0,0,1,2.74-2.29,7.2,7.2,0,0,1,3.21-.7c2.59,0,4.33.9,5.24,2.71a9.53,9.53,0,0,1,.75,4.23v11.68h-3.11V300.23a6.16,6.16,0,0,0-.5-2.68,3,3,0,0,0-3-1.7,5.91,5.91,0,0,0-1.78.22,4.62,4.62,0,0,0-2.21,1.49,4.69,4.69,0,0,0-1,1.87,12.66,12.66,0,0,0-.23,2.74v9.54h-3.06Z"/><path class="cls-1" d="M233.82,287.94c.71-1.05,2.09-1.57,4.13-1.57l.6,0,.69.05v2.79l-.69,0h-.41q-1.41,0-1.68.72a13.74,13.74,0,0,0-.28,3.68h3.06V296h-3.06v15.71h-3V296h-2.54v-2.42h2.54v-2.85A5.38,5.38,0,0,1,233.82,287.94Z"/><path class="cls-1" d="M254.6,295.32q2.41,2.34,2.41,6.9a11.89,11.89,0,0,1-2.12,7.27q-2.13,2.86-6.61,2.87a7.43,7.43,0,0,1-5.92-2.54,10,10,0,0,1-2.2-6.82,10.91,10.91,0,0,1,2.31-7.31,7.77,7.77,0,0,1,6.22-2.72A8.14,8.14,0,0,1,254.6,295.32Zm-1.9,12.1a11.62,11.62,0,0,0,1.12-5.12,9.13,9.13,0,0,0-.81-4.14,4.53,4.53,0,0,0-4.41-2.52,4.34,4.34,0,0,0-4,2.14,10,10,0,0,0-1.26,5.17,8.71,8.71,0,0,0,1.26,4.84,4.42,4.42,0,0,0,4,1.93A4.16,4.16,0,0,0,252.7,307.42Z"/><path class="cls-1" d="M260.4,293.5h2.91v3.15a6.9,6.9,0,0,1,1.75-2.24,4.54,4.54,0,0,1,3.22-1.32l.29,0,.69.07v3.23a3.32,3.32,0,0,0-.5-.07l-.5,0a4.39,4.39,0,0,0-3.56,1.49,5.24,5.24,0,0,0-1.24,3.43v10.47H260.4Z"/><path class="cls-1" d="M281.59,286.73h3.12v3.47h-3.12Zm0,6.85h3.12v18.13h-3.12Z"/><path class="cls-1" d="M288.86,293.5h2.91v2.58a8.17,8.17,0,0,1,2.74-2.29,7.24,7.24,0,0,1,3.22-.7c2.58,0,4.33.9,5.23,2.71a9.53,9.53,0,0,1,.75,4.23v11.68H300.6V300.23a6.17,6.17,0,0,0-.49-2.68,3,3,0,0,0-3-1.7,6,6,0,0,0-1.79.22,4.66,4.66,0,0,0-2.21,1.49,4.54,4.54,0,0,0-1,1.87,12,12,0,0,0-.23,2.74v9.54h-3.07Z"/><path class="cls-1" d="M308.85,293.5l4.87,14.83,5.06-14.83h3.36l-6.86,18.21H312L305.3,293.5Z"/><path class="cls-1" d="M337.09,295.32q2.42,2.34,2.42,6.9a11.89,11.89,0,0,1-2.13,7.27q-2.13,2.86-6.6,2.87a7.44,7.44,0,0,1-5.93-2.54,10.09,10.09,0,0,1-2.2-6.82,10.92,10.92,0,0,1,2.32-7.31,7.74,7.74,0,0,1,6.21-2.72A8.14,8.14,0,0,1,337.09,295.32Zm-1.9,12.1a11.48,11.48,0,0,0,1.12-5.12,9.13,9.13,0,0,0-.81-4.14,4.53,4.53,0,0,0-4.4-2.52,4.35,4.35,0,0,0-4,2.14A10,10,0,0,0,325.8,303a8.71,8.71,0,0,0,1.26,4.84,4.43,4.43,0,0,0,4,1.93A4.15,4.15,0,0,0,335.19,307.42Z"/><path class="cls-1" d="M342.82,286.73h2.94v14.51l7.85-7.74h3.91l-7,6.77,7.39,11.44H354l-5.73-9.26-2.51,2.43v6.83h-2.94Z"/><path class="cls-1" d="M360.12,286.73h3.11v3.47h-3.11Zm0,6.85h3.11v18.13h-3.11Z"/><path class="cls-1" d="M367.39,293.5h2.91v2.58a8.07,8.07,0,0,1,2.74-2.29,7.2,7.2,0,0,1,3.21-.7c2.59,0,4.33.9,5.24,2.71a9.53,9.53,0,0,1,.75,4.23v11.68h-3.12V300.23a6.17,6.17,0,0,0-.49-2.68,3,3,0,0,0-3-1.7,5.91,5.91,0,0,0-1.78.22,5,5,0,0,0-3.21,3.36,12.66,12.66,0,0,0-.23,2.74v9.54h-3.06Z"/><path class="cls-1" d="M396.65,294.23a8.68,8.68,0,0,1,1.76,1.74v-2.3h2.82v16.56a12.22,12.22,0,0,1-1,5.48q-1.89,3.71-7.17,3.71a8.78,8.78,0,0,1-4.93-1.32,5.16,5.16,0,0,1-2.24-4.12H389a3.41,3.41,0,0,0,.88,1.88,4.45,4.45,0,0,0,3.24,1c2.34,0,3.87-.82,4.59-2.48a14.08,14.08,0,0,0,.59-5.22,6,6,0,0,1-2.2,2.08,7.38,7.38,0,0,1-3.41.68,7.25,7.25,0,0,1-5.16-2.11q-2.2-2.1-2.21-6.94a10.61,10.61,0,0,1,2.23-7.15,6.89,6.89,0,0,1,5.38-2.56A6.65,6.65,0,0,1,396.65,294.23Zm.37,3.28a4.42,4.42,0,0,0-3.54-1.63,4.36,4.36,0,0,0-4.39,3,11.86,11.86,0,0,0-.63,4.23,7.56,7.56,0,0,0,1.24,4.69,4,4,0,0,0,3.34,1.61,4.7,4.7,0,0,0,4.62-3,9.57,9.57,0,0,0,.75-3.93A7.6,7.6,0,0,0,397,297.51Z"/><path class="cls-1" d="M415.65,293.5h2.91v3.15a6.9,6.9,0,0,1,1.75-2.24,4.54,4.54,0,0,1,3.22-1.32l.29,0,.69.07v3.23a3.16,3.16,0,0,0-.5-.07l-.5,0a4.36,4.36,0,0,0-3.55,1.49,5.2,5.2,0,0,0-1.25,3.43v10.47h-3.06Z"/><path class="cls-1" d="M437.9,294a6.9,6.9,0,0,1,2.75,2.36,8.11,8.11,0,0,1,1.22,3.21,21.2,21.2,0,0,1,.27,4H428.89a7.88,7.88,0,0,0,1.3,4.46,4.32,4.32,0,0,0,3.76,1.68,4.87,4.87,0,0,0,3.8-1.58,5.43,5.43,0,0,0,1.12-2.14h3a6.37,6.37,0,0,1-.79,2.24,7.64,7.64,0,0,1-1.5,2,7,7,0,0,1-3.42,1.84,10.41,10.41,0,0,1-2.48.27,7.58,7.58,0,0,1-5.73-2.47,9.65,9.65,0,0,1-2.35-6.93,10.54,10.54,0,0,1,2.36-7.13,7.78,7.78,0,0,1,6.19-2.74A8.19,8.19,0,0,1,437.9,294Zm1.09,7.15a8,8,0,0,0-.86-3.18,4.4,4.4,0,0,0-4.16-2.21,4.6,4.6,0,0,0-3.51,1.52,5.74,5.74,0,0,0-1.5,3.87Z"/><path class="cls-1" d="M445.54,293.5h3v2.58a10.45,10.45,0,0,1,2-1.95,6,6,0,0,1,3.44-1,5.41,5.41,0,0,1,3.5,1.07,5.6,5.6,0,0,1,1.36,1.81,6.56,6.56,0,0,1,2.4-2.17,6.71,6.71,0,0,1,3.1-.71c2.44,0,4.11.89,5,2.65a8.82,8.82,0,0,1,.71,3.85v12.12h-3.18V299.06a2.94,2.94,0,0,0-.91-2.5,3.64,3.64,0,0,0-2.22-.68,4.37,4.37,0,0,0-3.1,1.21c-.87.8-1.3,2.15-1.3,4v10.59h-3.12V299.83a6.13,6.13,0,0,0-.44-2.71,2.69,2.69,0,0,0-2.6-1.27,4.48,4.48,0,0,0-3.16,1.34c-.94.9-1.42,2.52-1.42,4.86v9.66h-3.06Z"/><path class="cls-1" d="M487.55,295.32q2.42,2.34,2.42,6.9a11.89,11.89,0,0,1-2.13,7.27q-2.13,2.86-6.6,2.87a7.44,7.44,0,0,1-5.93-2.54,10.09,10.09,0,0,1-2.2-6.82,10.86,10.86,0,0,1,2.32-7.31,7.74,7.74,0,0,1,6.21-2.72A8.14,8.14,0,0,1,487.55,295.32Zm-1.9,12.1a11.48,11.48,0,0,0,1.12-5.12,9.13,9.13,0,0,0-.81-4.14,4.53,4.53,0,0,0-4.4-2.52,4.35,4.35,0,0,0-4,2.14,10,10,0,0,0-1.26,5.17,8.71,8.71,0,0,0,1.26,4.84,4.43,4.43,0,0,0,4,1.93A4.15,4.15,0,0,0,485.65,307.42Z"/><path class="cls-1" d="M493.66,288.41h3.09v5.09h2.91V296h-2.91v11.89a1.28,1.28,0,0,0,.65,1.27,2.65,2.65,0,0,0,1.19.19h.47l.6-.06v2.43a6.5,6.5,0,0,1-1.1.23,11.78,11.78,0,0,1-1.23.06,3.33,3.33,0,0,1-2.91-1.09,4.89,4.89,0,0,1-.76-2.85V296h-2.47v-2.5h2.47Z"/><path class="cls-1" d="M513.24,294a6.93,6.93,0,0,1,2.76,2.36,8.25,8.25,0,0,1,1.21,3.21,21.2,21.2,0,0,1,.27,4H504.23a7.88,7.88,0,0,0,1.3,4.46,4.34,4.34,0,0,0,3.77,1.68,4.85,4.85,0,0,0,3.79-1.58,5.45,5.45,0,0,0,1.13-2.14h3a6.58,6.58,0,0,1-.79,2.24,8.1,8.1,0,0,1-1.5,2,7.07,7.07,0,0,1-3.43,1.84,10.41,10.41,0,0,1-2.48.27,7.61,7.61,0,0,1-5.73-2.47A9.65,9.65,0,0,1,501,303a10.49,10.49,0,0,1,2.37-7.13,7.77,7.77,0,0,1,6.18-2.74A8.19,8.19,0,0,1,513.24,294Zm1.1,7.15a8.15,8.15,0,0,0-.86-3.18,4.42,4.42,0,0,0-4.17-2.21,4.63,4.63,0,0,0-3.51,1.52,5.84,5.84,0,0,0-1.5,3.87Z"/><path class="cls-1" d="M531,293.5h3v2.58a10.46,10.46,0,0,1,2-1.95,5.93,5.93,0,0,1,3.43-1,5.46,5.46,0,0,1,3.51,1.07,5.6,5.6,0,0,1,1.36,1.81,6.56,6.56,0,0,1,2.4-2.17,6.67,6.67,0,0,1,3.09-.71c2.45,0,4.12.89,5,2.65a8.68,8.68,0,0,1,.71,3.85v12.12h-3.18V299.06a2.94,2.94,0,0,0-.91-2.5,3.59,3.59,0,0,0-2.21-.68,4.39,4.39,0,0,0-3.11,1.21c-.87.8-1.3,2.15-1.3,4v10.59h-3.11V299.83a6.28,6.28,0,0,0-.44-2.71,2.71,2.71,0,0,0-2.61-1.27,4.47,4.47,0,0,0-3.15,1.34q-1.42,1.35-1.42,4.86v9.66H531Z"/><path class="cls-1" d="M570.93,294a6.87,6.87,0,0,1,2.76,2.36,8.26,8.26,0,0,1,1.22,3.21,21.2,21.2,0,0,1,.27,4H561.93a7.81,7.81,0,0,0,1.3,4.46,4.32,4.32,0,0,0,3.76,1.68,4.87,4.87,0,0,0,3.8-1.58,5.43,5.43,0,0,0,1.12-2.14h3a6.37,6.37,0,0,1-.79,2.24,8.1,8.1,0,0,1-1.5,2,7,7,0,0,1-3.42,1.84,10.5,10.5,0,0,1-2.49.27,7.61,7.61,0,0,1-5.73-2.47,9.69,9.69,0,0,1-2.34-6.93,10.49,10.49,0,0,1,2.36-7.13,7.78,7.78,0,0,1,6.19-2.74A8.15,8.15,0,0,1,570.93,294Zm1.1,7.15a8,8,0,0,0-.86-3.18,4.41,4.41,0,0,0-4.17-2.21,4.6,4.6,0,0,0-3.5,1.52,5.74,5.74,0,0,0-1.5,3.87Z"/><path class="cls-1" d="M578.93,288.41H582v5.09h2.9V296H582v11.89a1.28,1.28,0,0,0,.64,1.27,2.68,2.68,0,0,0,1.19.19h.48l.59-.06v2.43a6.39,6.39,0,0,1-1.09.23,11.84,11.84,0,0,1-1.24.06,3.32,3.32,0,0,1-2.9-1.09,4.9,4.9,0,0,1-.77-2.85V296h-2.47v-2.5h2.47Z"/><path class="cls-1" d="M587.63,286.65h3.06V296a8.78,8.78,0,0,1,2-1.94,6.54,6.54,0,0,1,3.69-1q4,0,5.37,2.77a9.45,9.45,0,0,1,.77,4.2v11.68h-3.15V300.23a6.45,6.45,0,0,0-.51-2.94,3.25,3.25,0,0,0-3.13-1.49,5.21,5.21,0,0,0-3.45,1.3q-1.54,1.32-1.55,4.95v9.66h-3.06Z"/><path class="cls-1" d="M619.92,295.32q2.42,2.34,2.41,6.9a11.89,11.89,0,0,1-2.13,7.27c-1.41,1.91-3.62,2.87-6.6,2.87a7.46,7.46,0,0,1-5.93-2.54,10.09,10.09,0,0,1-2.19-6.82,10.91,10.91,0,0,1,2.31-7.31A7.76,7.76,0,0,1,614,293,8.14,8.14,0,0,1,619.92,295.32Zm-1.9,12.1a11.62,11.62,0,0,0,1.11-5.12,9.14,9.14,0,0,0-.8-4.14,4.53,4.53,0,0,0-4.41-2.52,4.34,4.34,0,0,0-4,2.14,9.93,9.93,0,0,0-1.27,5.17,8.63,8.63,0,0,0,1.27,4.84,4.42,4.42,0,0,0,4,1.93A4.17,4.17,0,0,0,618,307.42Z"/><path class="cls-1" d="M635.88,294.06a8.32,8.32,0,0,1,1.85,1.79v-9.2h2.94v25.06h-2.76v-2.53a6.62,6.62,0,0,1-2.52,2.43,7.21,7.21,0,0,1-3.34.75,6.74,6.74,0,0,1-5.25-2.56,10,10,0,0,1-2.22-6.81,11.82,11.82,0,0,1,2-6.9,6.63,6.63,0,0,1,5.79-2.91A6.44,6.44,0,0,1,635.88,294.06ZM629,307.72a4.34,4.34,0,0,0,4,2,4.17,4.17,0,0,0,3.48-1.83,8.67,8.67,0,0,0,1.36-5.25,7.78,7.78,0,0,0-1.4-5.11,4.38,4.38,0,0,0-3.47-1.65,4.59,4.59,0,0,0-3.73,1.76,8.17,8.17,0,0,0-1.43,5.21A9.11,9.11,0,0,0,629,307.72Z"/><path class="cls-1" d="M646.69,306a4.39,4.39,0,0,0,.78,2.35c.79,1,2.15,1.48,4.1,1.48a6.18,6.18,0,0,0,3-.74,2.46,2.46,0,0,0,1.32-2.29,2,2,0,0,0-1.05-1.79,12.33,12.33,0,0,0-2.66-.86l-2.48-.62a11.9,11.9,0,0,1-3.49-1.29,3.86,3.86,0,0,1-2-3.43,5.25,5.25,0,0,1,1.88-4.19,7.63,7.63,0,0,1,5.08-1.6q4.17,0,6,2.42a5.21,5.21,0,0,1,1.12,3.3h-2.9a3.39,3.39,0,0,0-.74-1.88q-1.08-1.2-3.75-1.2a4.58,4.58,0,0,0-2.69.66,2,2,0,0,0-.91,1.75,2.13,2.13,0,0,0,1.2,1.89,6.83,6.83,0,0,0,2,.75l2.06.49a16.25,16.25,0,0,1,4.5,1.55,4.1,4.1,0,0,1,1.79,3.69,5.58,5.58,0,0,1-1.87,4.2c-1.25,1.18-3.14,1.77-5.69,1.77-2.74,0-4.69-.61-5.83-1.84a7,7,0,0,1-1.83-4.57Z"/><path class="cls-1" d="M662.46,315.29a2.16,2.16,0,0,0,1.65-1.66,4.72,4.72,0,0,0,.26-1.49c0-.08,0-.15,0-.21a1,1,0,0,0-.05-.22h-1.85V308h3.64v3.43a7.4,7.4,0,0,1-.82,3.56,3.68,3.68,0,0,1-2.82,1.88Z"/><path class="cls-1" d="M691.18,294.06a8.31,8.31,0,0,1,1.84,1.79v-9.2h3v25.06h-2.76v-2.53a6.62,6.62,0,0,1-2.52,2.43,7.24,7.24,0,0,1-3.34.75,6.74,6.74,0,0,1-5.25-2.56,10,10,0,0,1-2.22-6.81,11.82,11.82,0,0,1,2-6.9,6.63,6.63,0,0,1,5.79-2.91A6.44,6.44,0,0,1,691.18,294.06Zm-6.84,13.66a4.34,4.34,0,0,0,4,2,4.17,4.17,0,0,0,3.48-1.83,8.67,8.67,0,0,0,1.36-5.25,7.83,7.83,0,0,0-1.4-5.11,4.38,4.38,0,0,0-3.47-1.65,4.57,4.57,0,0,0-3.73,1.76,8.11,8.11,0,0,0-1.43,5.21A9.11,9.11,0,0,0,684.34,307.72Z"/><path class="cls-1" d="M711.44,294a6.87,6.87,0,0,1,2.76,2.36,8.1,8.1,0,0,1,1.21,3.21,20.2,20.2,0,0,1,.28,4H702.44a7.81,7.81,0,0,0,1.3,4.46,4.32,4.32,0,0,0,3.76,1.68,4.88,4.88,0,0,0,3.8-1.58,5.56,5.56,0,0,0,1.12-2.14h3a6.37,6.37,0,0,1-.79,2.24,8.1,8.1,0,0,1-1.5,2,7,7,0,0,1-3.43,1.84,10.35,10.35,0,0,1-2.48.27,7.61,7.61,0,0,1-5.73-2.47,9.69,9.69,0,0,1-2.35-6.93,10.49,10.49,0,0,1,2.37-7.13,7.78,7.78,0,0,1,6.19-2.74A8.15,8.15,0,0,1,711.44,294Zm1.1,7.15a8,8,0,0,0-.86-3.18,4.41,4.41,0,0,0-4.17-2.21,4.6,4.6,0,0,0-3.5,1.52,5.8,5.8,0,0,0-1.51,3.87Z"/><path class="cls-1" d="M730.41,294a6.87,6.87,0,0,1,2.76,2.36,8.1,8.1,0,0,1,1.21,3.21,20.2,20.2,0,0,1,.28,4H721.41a7.81,7.81,0,0,0,1.3,4.46,4.32,4.32,0,0,0,3.76,1.68,4.87,4.87,0,0,0,3.8-1.58,5.56,5.56,0,0,0,1.12-2.14h3a6.37,6.37,0,0,1-.79,2.24,8.1,8.1,0,0,1-1.5,2,7,7,0,0,1-3.43,1.84,10.35,10.35,0,0,1-2.48.27,7.61,7.61,0,0,1-5.73-2.47,9.69,9.69,0,0,1-2.35-6.93,10.49,10.49,0,0,1,2.37-7.13,7.78,7.78,0,0,1,6.19-2.74A8.15,8.15,0,0,1,730.41,294Zm1.1,7.15a8,8,0,0,0-.86-3.18,4.41,4.41,0,0,0-4.17-2.21,4.6,4.6,0,0,0-3.5,1.52,5.8,5.8,0,0,0-1.51,3.87Z"/><path class="cls-1" d="M737.93,293.58h3V296a7.42,7.42,0,0,1,2-1.92,6.47,6.47,0,0,1,3.64-1,6.87,6.87,0,0,1,5.27,2.37q2.17,2.37,2.17,6.78,0,6-3.13,8.5a7.05,7.05,0,0,1-4.61,1.62,6.19,6.19,0,0,1-3.46-.91,7.81,7.81,0,0,1-1.83-1.75V319h-3.06Zm11.52,14.28a8.49,8.49,0,0,0,1.42-5.36,10.08,10.08,0,0,0-.63-3.75,4.63,4.63,0,0,0-8.74.17,12.64,12.64,0,0,0-.63,4.32,9.12,9.12,0,0,0,.63,3.59,4.65,4.65,0,0,0,8,1Z"/><path class="cls-1" d="M757.35,286.73h3.06v25h-3.06Z"/><path class="cls-1" d="M776,293.5h3.38c-.43,1.17-1.38,3.83-2.87,8q-1.66,4.69-2.79,7.65-2.65,7-3.74,8.5a4.26,4.26,0,0,1-3.73,1.53,8.07,8.07,0,0,1-1-.05,7.35,7.35,0,0,1-.86-.19v-2.79a8.91,8.91,0,0,0,1.16.27,3.8,3.8,0,0,0,.63.06,2.23,2.23,0,0,0,1.24-.28,2.59,2.59,0,0,0,.67-.69c.06-.09.26-.56.62-1.39s.6-1.46.76-1.87l-6.74-18.75h3.47l4.88,14.84Z"/><path class="cls-1" d="M782.68,286.73h3.45V295l-.83,10.81h-1.73L782.68,295Zm0,21.45h3.39v3.53h-3.39Z"/><path class="cls-2" d="M106.43,106.21H205a53.11,53.11,0,1,1,0,106.22H106.43a53.15,53.15,0,0,1-42.51-21.22L50.74,202.92a7.56,7.56,0,0,1-5,1.92H7.77A7.59,7.59,0,0,1,1.55,192.9l23.51-33.58L1.55,125.74A7.59,7.59,0,0,1,7.77,113.8H45.7a7.56,7.56,0,0,1,5,1.92l13.18,11.71A53.15,53.15,0,0,1,106.43,106.21ZM205,170.7a11.38,11.38,0,1,0-11.38-11.38A11.38,11.38,0,0,0,205,170.7Zm-49.31,0a11.38,11.38,0,1,0-11.38-11.38A11.39,11.39,0,0,0,155.71,170.7Zm-49.31,0A11.38,11.38,0,1,0,95,159.32,11.39,11.39,0,0,0,106.4,170.7Zm15.17-75.87,3.33-16.29a12.09,12.09,0,0,1,11.87-10.26h45.47A12.08,12.08,0,0,1,194.1,78.54l3.34,16.29Zm45.52-37.92H151.92V22.75A22.74,22.74,0,0,1,174.66,0h11.45a3.79,3.79,0,0,1,3.75,3.83v7.51a3.77,3.77,0,0,1-3.75,3.83H174.66a7.57,7.57,0,0,0-7.57,7.58Z"/></svg>