<svg id="Calque_1" data-name="Calque 1" xmlns="http://www.w3.org/2000/svg" viewBox="0 0 788.86 328.47"><defs><style>.cls-1{font-size:202.19px;font-family:VAGRundschriftD, VAG Rundschrift D;letter-spacing:-0.03em;}.cls-1,.cls-6{fill:#7b7b7b;}.cls-2{letter-spacing:0em;}.cls-3{letter-spacing:-0.02em;}.cls-4{letter-spacing:-0.02em;}.cls-5{letter-spacing:-0.01em;}.cls-6{font-size:34.83px;font-family:Helvetica;}.cls-7{letter-spacing:0em;}.cls-8{letter-spacing:-0.01em;}.cls-9{letter-spacing:-0.01em;}.cls-10{letter-spacing:0em;}.cls-11{letter-spacing:-0.01em;}.cls-12{letter-spacing:-0.01em;}.cls-13{letter-spacing:-0.01em;}.cls-14{letter-spacing:0em;}.cls-15{letter-spacing:-0.02em;}.cls-16{letter-spacing:-0.01em;}.cls-17{letter-spacing:-0.01em;}.cls-18{letter-spacing:-0.02em;}.cls-19{letter-spacing:-0.01em;}.cls-20{letter-spacing:-0.01em;}.cls-21{letter-spacing:-0.03em;}.cls-22{letter-spacing:-0.02em;}.cls-23{letter-spacing:-0.01em;}.cls-24{letter-spacing:-0.01em;}.cls-25{letter-spacing:-0.01em;}.cls-26{letter-spacing:-0.01em;}.cls-27{letter-spacing:-0.01em;}.cls-28{letter-spacing:-0.01em;}.cls-29{letter-spacing:-0.02em;}.cls-30{letter-spacing:-0.02em;}.cls-31{letter-spacing:-0.01em;}.cls-32{letter-spacing:-0.02em;}.cls-33{letter-spacing:-0.01em;}.cls-34{letter-spacing:-0.01em;}.cls-35{letter-spacing:-0.01em;}.cls-36{letter-spacing:-0.01em;}.cls-37{letter-spacing:0em;}.cls-38{letter-spacing:-0.01em;}.cls-39{letter-spacing:-0.01em;}.cls-40{letter-spacing:-0.01em;}.cls-41{letter-spacing:-0.01em;}.cls-42{letter-spacing:-0.01em;}.cls-43{letter-spacing:-0.03em;}.cls-44{fill:#ff358b;fill-rule:evenodd;}</style></defs><title>deepr-logo-with-tagline</title><text class="cls-1" transform="translate(290.49 211.58)">d<tspan class="cls-2" x="105.95" y="0">e</tspan><tspan class="cls-3" x="212.91" y="0">e</tspan><tspan class="cls-4" x="316.15" y="0">p</tspan><tspan class="cls-5" x="423.14" y="0">r</tspan></text><text class="cls-6" transform="translate(0 311.71)">A <tspan class="cls-7" x="32.91" y="0">s</tspan><tspan class="cls-8" x="50.21" y="0">p</tspan><tspan class="cls-9" x="69.36" y="0">e</tspan><tspan class="cls-10" x="88.45" y="0">c</tspan><tspan class="cls-11" x="105.79" y="0">i</tspan><tspan class="cls-12" x="113.11" y="0">f</tspan><tspan class="cls-13" x="122.39" y="0">i</tspan><tspan class="cls-14" x="129.89" y="0">c</tspan><tspan class="cls-15" x="147.18" y="0">a</tspan><tspan class="cls-16" x="165.82" y="0">t</tspan><tspan class="cls-13" x="175.18" y="0">i</tspan><tspan class="cls-17" x="182.68" y="0">o</tspan><tspan x="201.63" y="0">n </tspan><tspan class="cls-18" x="230.68" y="0">f</tspan><tspan class="cls-19" x="239.69" y="0">o</tspan><tspan x="258.61" y="0">r </tspan><tspan class="cls-20" x="279.88" y="0">i</tspan><tspan class="cls-21" x="287.16" y="0">n</tspan><tspan class="cls-22" x="305.64" y="0">v</tspan><tspan class="cls-23" x="322.19" y="0">o</tspan><tspan class="cls-24" x="341.17" y="0">k</tspan><tspan class="cls-25" x="358.41" y="0">i</tspan><tspan class="cls-13" x="365.68" y="0">n</tspan><tspan x="384.81" y="0">g </tspan><tspan class="cls-26" x="413.86" y="0">r</tspan><tspan class="cls-27" x="424.94" y="0">e</tspan><tspan class="cls-28" x="443.83" y="0">m</tspan><tspan class="cls-29" x="472.65" y="0">o</tspan><tspan class="cls-30" x="491.33" y="0">t</tspan><tspan x="500.28" y="0">e </tspan><tspan class="cls-31" x="529.33" y="0">m</tspan><tspan class="cls-32" x="557.97" y="0">e</tspan><tspan class="cls-33" x="576.61" y="0">t</tspan><tspan class="cls-34" x="585.92" y="0">h</tspan><tspan class="cls-8" x="605.01" y="0">o</tspan><tspan class="cls-35" x="624.16" y="0">d</tspan><tspan class="cls-36" x="643.16" y="0">s</tspan><tspan class="cls-37" x="660.11" y="0">, </tspan><tspan class="cls-38" x="679.46" y="0">d</tspan><tspan class="cls-39" x="698.48" y="0">e</tspan><tspan class="cls-40" x="717.45" y="0">e</tspan><tspan class="cls-41" x="736.48" y="0">p</tspan><tspan class="cls-42" x="755.55" y="0">l</tspan><tspan class="cls-43" x="762.95" y="0">y</tspan><tspan x="779.19" y="0">!</tspan></text><path class="cls-44" d="M107,106.21h98.57a53.11,53.11,0,1,1,0,106.22H107a53.13,53.13,0,0,1-42.5-21.22L51.28,202.92a7.56,7.56,0,0,1-5,1.92H8.31A7.59,7.59,0,0,1,2.09,192.9L25.6,159.32,2.09,125.74A7.59,7.59,0,0,1,8.31,113.8H46.24a7.56,7.56,0,0,1,5,1.92l13.18,11.71A53.13,53.13,0,0,1,107,106.21Zm98.6,64.49a11.38,11.38,0,1,0-11.38-11.38A11.39,11.39,0,0,0,205.56,170.7Zm-49.32,0a11.38,11.38,0,1,0-11.38-11.38A11.38,11.38,0,0,0,156.24,170.7Zm-49.31,0a11.38,11.38,0,1,0-11.38-11.38A11.38,11.38,0,0,0,106.93,170.7ZM122.1,94.83l3.34-16.29A12.09,12.09,0,0,1,137.3,68.28h45.47a12.09,12.09,0,0,1,11.87,10.26L198,94.83Zm45.52-37.92H152.45V22.75A22.74,22.74,0,0,1,175.2,0h11.44a3.8,3.8,0,0,1,3.76,3.83v7.51a3.77,3.77,0,0,1-3.76,3.83H175.2a7.58,7.58,0,0,0-7.58,7.58Z"/></svg>